HIERARCHY
ROOT newVegas:Hips
{
	OFFSET 0.000000 96.479958 0.000000
	CHANNELS 6 Xposition Yposition Zposition Xrotation Yrotation Zrotation
	JOINT newVegas:Pelvis
	{
		OFFSET 0.000000 0.000000 0.000000
		CHANNELS 3 Xrotation Yrotation Zrotation
		JOINT newVegas:LeftUpLeg
		{
			OFFSET 18.735201 -5.666702 -4.541200
			CHANNELS 3 Xrotation Yrotation Zrotation
			JOINT newVegas:LeftLeg
			{
				OFFSET -0.021200 -31.938179 0.493100
				CHANNELS 3 Xrotation Yrotation Zrotation
				JOINT newVegas:LeftFoot
				{
					OFFSET 0.021200 -31.938179 -4.336299
					CHANNELS 3 Xrotation Yrotation Zrotation
					JOINT newVegas:LeftToeBase
					{
						OFFSET 0.943001 -26.722000 15.023500
						CHANNELS 3 Xrotation Yrotation Zrotation
						End Site
						{
							OFFSET 0.000000 30.670183 0.000000
						}
					}
				}
				JOINT newVegas:Left_PantLeg
				{
					OFFSET 0.663870 -9.044666 -1.108900
					CHANNELS 3 Xrotation Yrotation Zrotation
					End Site
					{
						OFFSET 1.415995 20.635357 0.000000
					}
				}
			}
		}
		JOINT newVegas:RightUpLeg
		{
			OFFSET -18.735201 -5.666702 -4.541200
			CHANNELS 3 Xrotation Yrotation Zrotation
			JOINT newVegas:RightLeg
			{
				OFFSET 0.018946 -31.938133 0.493100
				CHANNELS 3 Xrotation Yrotation Zrotation
				JOINT newVegas:RightFoot
				{
					OFFSET -0.018946 -31.938126 -4.336299
					CHANNELS 3 Xrotation Yrotation Zrotation
					JOINT newVegas:RightToeBase
					{
						OFFSET -0.943001 -26.722004 15.023500
						CHANNELS 3 Xrotation Yrotation Zrotation
						End Site
						{
							OFFSET 0.000000 30.670187 0.000000
						}
					}
				}
				JOINT newVegas:Right_PantLeg
				{
					OFFSET -0.661674 -9.044716 -1.108900
					CHANNELS 3 Xrotation Yrotation Zrotation
					End Site
					{
						OFFSET -1.415958 20.635269 0.000000
					}
				}
			}
		}
	}
	JOINT newVegas:Spine
	{
		OFFSET 0.000000 10.199997 -0.299500
		CHANNELS 3 Xrotation Yrotation Zrotation
		JOINT newVegas:Spine1
		{
			OFFSET 0.000000 11.900002 -1.516600
			CHANNELS 3 Xrotation Yrotation Zrotation
			JOINT newVegas:Spine2
			{
				OFFSET 0.000000 13.600006 -2.842500
				CHANNELS 3 Xrotation Yrotation Zrotation
				JOINT newVegas:Neck
				{
					OFFSET 0.000000 9.624100 -2.890100
					CHANNELS 3 Xrotation Yrotation Zrotation
					JOINT newVegas:Head
					{
						OFFSET 0.000000 14.068802 -1.351900
						CHANNELS 3 Xrotation Yrotation Zrotation
						JOINT newVegas:Hair_Back
						{
							OFFSET 0.000000 3.231903 -17.524799
							CHANNELS 3 Xrotation Yrotation Zrotation
							End Site
							{
								OFFSET 0.000000 19.849884 0.000000
							}
						}
						JOINT newVegas:Hair_Front
						{
							OFFSET 0.000000 31.260406 4.573800
							CHANNELS 3 Xrotation Yrotation Zrotation
							JOINT newVegas:Hair_Front1
							{
								OFFSET 0.000000 2.284103 11.993300
								CHANNELS 3 Xrotation Yrotation Zrotation
								JOINT newVegas:Hair_Front2
								{
									OFFSET 0.000000 2.284103 11.993300
									CHANNELS 3 Xrotation Yrotation Zrotation
									End Site
									{
										OFFSET 0.000000 12.208862 0.000000
									}
								}
							}
						}
						JOINT newVegas:Jowel
						{
							OFFSET 0.000000 -7.458206 6.864100
							CHANNELS 3 Xrotation Yrotation Zrotation
							End Site
							{
								OFFSET 0.000000 19.849884 0.000000
							}
						}
					}
				}
				JOINT newVegas:LeftShoulder
				{
					OFFSET 15.263000 10.923401 -0.547700
					CHANNELS 3 Xrotation Yrotation Zrotation
					JOINT newVegas:LeftArm
					{
						OFFSET 25.438599 -2.830597 -13.032500
						CHANNELS 3 Xrotation Yrotation Zrotation
						JOINT newVegas:LeftForeArm
						{
							OFFSET 29.960503 0.000000 0.000000
							CHANNELS 3 Xrotation Yrotation Zrotation
							JOINT newVegas:LeftHand
							{
								OFFSET 27.849251 0.000000 0.000000
								CHANNELS 3 Xrotation Yrotation Zrotation
								JOINT newVegas:LeftHandThumb1
								{
									OFFSET 4.487587 -3.305161 6.305391
									CHANNELS 3 Xrotation Yrotation Zrotation
									JOINT newVegas:LeftHandThumb2
									{
										OFFSET 5.480453 -3.164139 3.164143
										CHANNELS 3 Xrotation Yrotation Zrotation
										JOINT newVegas:LeftHandThumb3
										{
											OFFSET 5.159721 -2.978973 2.978967
											CHANNELS 3 Xrotation Yrotation Zrotation
											End Site
											{
												OFFSET 2.494507 5.926697 1.738678
											}
										}
									}
								}
								JOINT newVegas:LeftHandIndex1
								{
									OFFSET 18.578728 -0.527832 5.208049
									CHANNELS 3 Xrotation Yrotation Zrotation
									JOINT newVegas:LeftHandIndex2
									{
										OFFSET 3.192009 0.000000 0.000000
										CHANNELS 3 Xrotation Yrotation Zrotation
										JOINT newVegas:LeftHandIndex3
										{
											OFFSET 3.835129 0.000000 0.000000
											CHANNELS 3 Xrotation Yrotation Zrotation
											End Site
											{
												OFFSET -0.034599 3.816971 0.371180
											}
										}
									}
								}
								JOINT newVegas:LeftHandMiddle1
								{
									OFFSET 18.476105 0.000000 0.000000
									CHANNELS 3 Xrotation Yrotation Zrotation
									JOINT newVegas:LeftHandMiddle2
									{
										OFFSET 3.324875 0.000000 0.000000
										CHANNELS 3 Xrotation Yrotation Zrotation
										JOINT newVegas:LeftHandMiddle3
										{
											OFFSET 4.596550 0.000000 0.000000
											CHANNELS 3 Xrotation Yrotation Zrotation
											End Site
											{
												OFFSET 0.057701 4.578827 0.399218
											}
										}
									}
								}
								JOINT newVegas:LeftHandRing1
								{
									OFFSET 17.732719 0.121887 -4.201567
									CHANNELS 3 Xrotation Yrotation Zrotation
									JOINT newVegas:LeftHandRing2
									{
										OFFSET 2.733170 0.000000 0.000000
										CHANNELS 3 Xrotation Yrotation Zrotation
										JOINT newVegas:LeftHandRing3
										{
											OFFSET 3.178268 0.000000 0.000000
											CHANNELS 3 Xrotation Yrotation Zrotation
											End Site
											{
												OFFSET 0.119102 3.170624 0.185394
											}
										}
									}
								}
								JOINT newVegas:LeftHandPinky1
								{
									OFFSET 15.989624 -0.606689 -7.535461
									CHANNELS 3 Xrotation Yrotation Zrotation
									JOINT newVegas:LeftHandPinky2
									{
										OFFSET 2.538986 0.000000 0.000000
										CHANNELS 3 Xrotation Yrotation Zrotation
										JOINT newVegas:LeftHandPinky3
										{
											OFFSET 2.593102 0.000000 0.000000
											CHANNELS 3 Xrotation Yrotation Zrotation
											End Site
											{
												OFFSET -0.150902 2.584198 0.152708
											}
										}
									}
								}
							}
							JOINT newVegas:Left_Sleeve
							{
								OFFSET 0.267448 -0.649796 0.577675
								CHANNELS 3 Xrotation Yrotation Zrotation
								End Site
								{
									OFFSET 0.000000 15.991241 0.000000
								}
							}
							JOINT newVegas:Left_CapeC
							{
								OFFSET 15.715958 -8.608795 -6.935905
								CHANNELS 3 Xrotation Yrotation Zrotation
								JOINT newVegas:Left_CapeC1
								{
									OFFSET 0.000000 -8.688499 0.000000
									CHANNELS 3 Xrotation Yrotation Zrotation
									End Site
									{
										OFFSET 0.000000 8.688499 0.000000
									}
								}
							}
						}
						JOINT newVegas:Left_CapeB
						{
							OFFSET 26.118385 -8.608795 -7.079235
							CHANNELS 3 Xrotation Yrotation Zrotation
							JOINT newVegas:Left_CapeB1
							{
								OFFSET 0.000000 -8.688499 0.000000
								CHANNELS 3 Xrotation Yrotation Zrotation
								End Site
								{
									OFFSET 0.000000 8.688499 0.000000
								}
							}
						}
						JOINT newVegas:Left_CapeA
						{
							OFFSET 5.115639 -8.608795 -10.395809
							CHANNELS 3 Xrotation Yrotation Zrotation
							JOINT newVegas:Left_CapeA1
							{
								OFFSET 0.000000 -8.688499 0.000000
								CHANNELS 3 Xrotation Yrotation Zrotation
								End Site
								{
									OFFSET 0.000000 8.688499 0.000000
								}
							}
						}
					}
				}
				JOINT newVegas:RightShoulder
				{
					OFFSET -15.263000 10.923401 -0.547700
					CHANNELS 3 Xrotation Yrotation Zrotation
					JOINT newVegas:RightArm
					{
						OFFSET -25.438599 -2.830597 -13.032500
						CHANNELS 3 Xrotation Yrotation Zrotation
						JOINT newVegas:RightForeArm
						{
							OFFSET -29.960503 0.000000 0.000000
							CHANNELS 3 Xrotation Yrotation Zrotation
							JOINT newVegas:RightHand
							{
								OFFSET -27.849251 0.000000 0.000000
								CHANNELS 3 Xrotation Yrotation Zrotation
								JOINT newVegas:RightHandThumb1
								{
									OFFSET -4.487587 -3.305161 6.305391
									CHANNELS 3 Xrotation Yrotation Zrotation
									JOINT newVegas:RightHandThumb2
									{
										OFFSET -5.480453 -3.164139 3.164143
										CHANNELS 3 Xrotation Yrotation Zrotation
										JOINT newVegas:RightHandThumb3
										{
											OFFSET -5.159721 -2.978973 2.978967
											CHANNELS 3 Xrotation Yrotation Zrotation
											End Site
											{
												OFFSET -2.494507 5.926697 1.738678
											}
										}
									}
								}
								JOINT newVegas:RightHandIndex1
								{
									OFFSET -18.578728 -0.527832 5.208049
									CHANNELS 3 Xrotation Yrotation Zrotation
									JOINT newVegas:RightHandIndex2
									{
										OFFSET -3.192009 0.000000 0.000000
										CHANNELS 3 Xrotation Yrotation Zrotation
										JOINT newVegas:RightHandIndex3
										{
											OFFSET -3.835129 0.000000 0.000000
											CHANNELS 3 Xrotation Yrotation Zrotation
											End Site
											{
												OFFSET 0.034599 3.816971 0.371180
											}
										}
									}
								}
								JOINT newVegas:RightHandMiddle1
								{
									OFFSET -18.476105 0.000000 0.000000
									CHANNELS 3 Xrotation Yrotation Zrotation
									JOINT newVegas:RightHandMiddle2
									{
										OFFSET -3.324875 0.000000 0.000000
										CHANNELS 3 Xrotation Yrotation Zrotation
										JOINT newVegas:RightHandMiddle3
										{
											OFFSET -4.596550 0.000000 0.000000
											CHANNELS 3 Xrotation Yrotation Zrotation
											End Site
											{
												OFFSET -0.057701 4.578827 0.399218
											}
										}
									}
								}
								JOINT newVegas:RightHandRing1
								{
									OFFSET -17.732719 0.121887 -4.201567
									CHANNELS 3 Xrotation Yrotation Zrotation
									JOINT newVegas:RightHandRing2
									{
										OFFSET -2.733170 0.000000 0.000000
										CHANNELS 3 Xrotation Yrotation Zrotation
										JOINT newVegas:RightHandRing3
										{
											OFFSET -3.178268 0.000000 0.000000
											CHANNELS 3 Xrotation Yrotation Zrotation
											End Site
											{
												OFFSET -0.119102 3.170624 0.185394
											}
										}
									}
								}
								JOINT newVegas:RightHandPinky1
								{
									OFFSET -15.989624 -0.606689 -7.535461
									CHANNELS 3 Xrotation Yrotation Zrotation
									JOINT newVegas:RightHandPinky2
									{
										OFFSET -2.538986 0.000000 0.000000
										CHANNELS 3 Xrotation Yrotation Zrotation
										JOINT newVegas:RightHandPinky3
										{
											OFFSET -2.593102 0.000000 0.000000
											CHANNELS 3 Xrotation Yrotation Zrotation
											End Site
											{
												OFFSET 0.150902 2.584198 0.152708
											}
										}
									}
								}
							}
							JOINT newVegas:Right_CapeC
							{
								OFFSET -15.715958 -8.608795 -6.935905
								CHANNELS 3 Xrotation Yrotation Zrotation
								JOINT newVegas:Right_CapeC1
								{
									OFFSET 0.000000 -8.688499 0.000000
									CHANNELS 3 Xrotation Yrotation Zrotation
									End Site
									{
										OFFSET 0.000000 8.688499 0.000000
									}
								}
							}
							JOINT newVegas:Right_Sleeve
							{
								OFFSET -0.267448 -0.649994 0.577675
								CHANNELS 3 Xrotation Yrotation Zrotation
								End Site
								{
									OFFSET 0.000000 15.991302 0.000000
								}
							}
						}
						JOINT newVegas:Right_CapeA
						{
							OFFSET -5.115540 -8.608795 -10.395824
							CHANNELS 3 Xrotation Yrotation Zrotation
							JOINT newVegas:Right_CapeA1
							{
								OFFSET 0.000000 -8.688499 0.000000
								CHANNELS 3 Xrotation Yrotation Zrotation
								End Site
								{
									OFFSET 0.000000 8.688499 0.000000
								}
							}
						}
						JOINT newVegas:Right_CapeB
						{
							OFFSET -26.118187 -8.608795 -7.079266
							CHANNELS 3 Xrotation Yrotation Zrotation
							JOINT newVegas:Right_CapeB1
							{
								OFFSET 0.000000 -8.688499 0.000000
								CHANNELS 3 Xrotation Yrotation Zrotation
								End Site
								{
									OFFSET 0.000000 8.688499 0.000000
								}
							}
						}
					}
				}
				JOINT newVegas:Left_Collar
				{
					OFFSET 18.625099 8.655502 8.828100
					CHANNELS 3 Xrotation Yrotation Zrotation
					JOINT newVegas:Left_Collar1
					{
						OFFSET 14.783401 10.540405 -1.259500
						CHANNELS 3 Xrotation Yrotation Zrotation
						End Site
						{
							OFFSET 0.000000 18.199875 0.000000
						}
					}
				}
				JOINT newVegas:Collar_Back
				{
					OFFSET 0.000000 15.630707 -20.132601
					CHANNELS 3 Xrotation Yrotation Zrotation
					End Site
					{
						OFFSET 0.000000 22.523010 0.000000
					}
				}
				JOINT newVegas:Left_Peck
				{
					OFFSET 17.239599 -5.132599 25.482599
					CHANNELS 3 Xrotation Yrotation Zrotation
					End Site
					{
						OFFSET 0.000000 22.523010 0.000000
					}
				}
				JOINT newVegas:Right_Peck
				{
					OFFSET -17.239599 -5.132202 25.482599
					CHANNELS 3 Xrotation Yrotation Zrotation
					End Site
					{
						OFFSET 0.000000 22.523010 0.000000
					}
				}
				JOINT newVegas:Right_Collar
				{
					OFFSET -18.625099 8.655792 8.828100
					CHANNELS 3 Xrotation Yrotation Zrotation
					JOINT newVegas:Right_Collar1
					{
						OFFSET -14.783401 10.539993 -1.259500
						CHANNELS 3 Xrotation Yrotation Zrotation
						End Site
						{
							OFFSET 0.000000 18.199631 0.000000
						}
					}
				}
			}
		}
		JOINT newVegas:Belly
		{
			OFFSET 0.000000 -6.540398 9.014299
			CHANNELS 3 Xrotation Yrotation Zrotation
			End Site
			{
				OFFSET 0.000000 11.566666 0.000000
			}
		}
	}
	JOINT newVegas:ElvisFacialAnim_Joint
	{
		OFFSET 1.000000 -95.330101 -8.825800
		CHANNELS 3 Xrotation Yrotation Zrotation
		End Site
		{
			OFFSET 0.000000 35.315800 0.000000
		}
	}
}
MOTION
Frames: 4
Frame Time: 0.033333
12.282648 74.297577 -10.048409 34.591435 -34.281898 18.573724 0.000002 -0.000002 0.000001 -94.975215 -7.122532 6.325823 67.195066 -15.538667 4.861848 -2.352968 2.171463 -9.895583 -0.000000 0.000002 -0.000000 -0.000000 -0.000001 0.000000 -92.042974 11.796609 -6.024570 81.450552 -9.701062 -2.723616 15.476355 0.313968 15.588401 -0.000000 -0.000000 0.000002 -0.000002 0.000002 -0.000001 7.505419 -0.502974 -2.121928 15.010502 -0.158711 -3.679501 15.010507 -0.158704 -3.679498 0.606664 -1.112726 -0.545238 0.606659 -1.112724 -0.545230 0.000001 -0.000000 -0.000000 0.606689 -1.112743 -0.545231 0.606642 -1.112730 -0.545228 -0.000000 0.000000 -0.000001 0.000001 -0.000000 -0.000002 -0.145003 -13.220340 -18.293082 5.102109 -17.351254 -42.916360 151.683188 -69.236159 120.346431 36.722560 10.251632 -8.800798 3.668047 4.529409 8.756626 4.025845 7.869536 4.515450 0.000003 -0.000003 -0.000005 0.916446 -5.977234 -6.077786 -3.382350 -1.486093 -47.626766 0.000001 -0.000002 -0.000000 -1.056546 -4.094800 -23.275289 -2.639713 -2.345066 -36.469911 -0.000001 0.000001 0.000000 0.049226 7.443118 -34.288239 0.082295 -3.291259 -36.772888 -0.000001 0.000001 0.000001 3.849210 22.876441 -34.016623 0.557254 -6.843861 -48.239092 0.000003 -0.000002 -0.000000 -0.000000 0.000001 -0.000001 -0.000000 0.000001 -0.000001 -0.000001 0.000001 -0.000001 -0.000001 0.000000 0.000001 -0.000000 -0.000001 0.000001 -0.000001 0.000000 0.000001 -0.000001 0.000001 -0.000000 -0.084930 18.773917 14.595373 9.481130 4.243603 50.015491 203.102451 74.475502 -177.763350 35.649534 -0.334754 -6.269364 -60.164261 -16.137340 -3.871695 1.179712 -0.757010 -3.624176 0.000000 -0.000002 -0.000003 -0.306000 5.902130 6.195055 -2.982519 0.584225 47.641007 0.000000 -0.000001 -0.000000 -2.088317 3.605960 23.358858 -2.421551 1.672966 36.526581 0.000001 0.000000 0.000001 1.248221 -6.682077 34.488292 -0.172261 4.087047 36.644163 0.000005 0.000001 -0.000000 6.694829 -21.071496 35.142505 -0.479668 9.200749 47.937290 0.000001 0.000003 -0.000001 0.000003 0.000007 -0.000000 0.000003 0.000002 0.000000 0.000003 0.000007 0.000001 -0.000000 0.000000 0.000000 -0.000000 0.000001 0.000000 -0.000000 0.000000 0.000000 -0.000000 0.000001 0.000000 0.000001 0.000001 -0.000003 0.000001 0.000001 -0.000003 0.000001 0.000001 -0.000003 0.000001 0.000001 -0.000003 0.000001 0.000001 -0.000003 0.000001 0.000001 -0.000003 0.000001 0.000001 -0.000003 -0.000001 -0.000003 0.000001 0.000002 -0.000002 0.000001 
12.327984 74.636734 -9.822746 34.035133 -35.239897 18.850000 -0.000000 0.000002 -0.000000 -93.478843 -6.977069 6.736386 67.191774 -14.931480 4.516533 -2.990353 2.196374 -9.558418 0.000000 0.000002 -0.000000 0.000000 -0.000001 0.000001 -91.174542 11.860898 -5.814675 80.646441 -9.181397 -3.037062 15.896140 0.374357 15.440693 -0.000002 0.000003 0.000001 0.000001 0.000002 0.000003 7.239941 -0.397723 -2.187078 14.483005 0.118352 -3.756769 14.482993 0.118360 -3.756771 0.642094 -0.541263 -0.726631 0.642095 -0.541266 -0.726627 -0.000000 0.000000 -0.000000 0.642089 -0.541226 -0.726640 0.642094 -0.541297 -0.726627 -0.000003 -0.000000 0.000001 -0.000000 0.000000 0.000000 -0.131962 -13.172787 -18.163088 4.387083 -17.624239 -43.728883 146.302092 -70.854962 114.747369 34.512826 9.001434 -8.312595 3.668590 4.529275 8.755394 4.025830 7.868995 4.514323 0.000003 -0.000000 -0.000001 0.916450 -5.977478 -6.077341 -3.379092 -1.484146 -47.626895 0.000001 0.000000 -0.000000 -1.056155 -4.092766 -23.274966 -2.637764 -2.342985 -36.470058 0.000001 0.000000 0.000000 0.049328 7.443650 -34.288192 0.081576 -3.292747 -36.772615 0.000000 -0.000001 0.000003 3.849271 22.875591 -34.016839 0.554412 -6.845646 -48.239198 0.000005 0.000000 0.000001 -0.000003 0.000003 -0.000003 -0.000003 0.000003 -0.000003 -0.000003 0.000003 -0.000003 0.000000 0.000001 -0.000002 0.000001 0.000000 -0.000001 0.000000 0.000001 -0.000002 0.000000 0.000000 -0.000001 -0.103603 18.689056 14.762667 8.705737 4.793529 50.250969 205.788313 76.623705 -181.071402 34.422839 0.145375 -4.290594 -57.344158 -15.234723 -4.402594 1.308968 -1.075167 -3.670819 -0.000003 0.000005 -0.000002 -0.306025 5.901647 6.194778 -2.979155 0.582118 47.641211 -0.000003 0.000001 0.000001 -2.088817 3.605352 23.358123 -2.419368 1.670646 36.526335 -0.000004 -0.000000 -0.000000 1.247580 -6.680570 34.487148 -0.173932 4.089111 36.644310 -0.000004 0.000001 -0.000002 6.693681 -21.071204 35.141456 -0.481725 9.202494 47.937228 0.000003 -0.000000 0.000001 0.000001 0.000000 -0.000003 0.000001 -0.000000 -0.000003 0.000001 -0.000000 -0.000003 -0.000000 -0.000003 0.000000 -0.000000 -0.000003 0.000001 -0.000000 -0.000003 0.000000 -0.000000 -0.000003 0.000000 0.000001 -0.000001 -0.000001 0.000001 -0.000001 -0.000001 0.000001 -0.000001 -0.000001 0.000001 -0.000001 -0.000001 0.000001 -0.000001 -0.000001 0.000001 -0.000001 -0.000001 0.000001 -0.000001 -0.000001 -0.000000 -0.000000 -0.000000 -0.000000 0.000002 -0.000000 
12.356823 75.070847 -9.538811 33.406284 -36.426464 19.180141 -0.000002 0.000001 0.000000 -91.656214 -6.697914 7.344205 67.241559 -14.343204 4.058062 -3.941430 2.243148 -9.032333 0.000000 -0.000000 -0.000000 -0.000000 -0.000001 -0.000000 -90.134448 11.835362 -5.532406 79.657061 -8.582747 -3.409883 16.382146 0.428015 15.090424 0.000001 0.000003 -0.000001 0.000001 0.000000 0.000001 6.930455 -0.294034 -2.233681 13.867592 0.410651 -3.775291 13.867610 0.410641 -3.775294 0.788792 0.413124 -0.940043 0.788786 0.413129 -0.940047 0.000001 0.000002 -0.000000 0.788737 0.413100 -0.940038 0.788815 0.413178 -0.940054 -0.000000 0.000001 -0.000001 0.000001 0.000002 -0.000000 -0.120809 -13.130339 -18.051679 3.698335 -17.860419 -44.682732 138.483697 -72.483067 106.678594 32.087242 7.551338 -7.399629 3.669289 4.529123 8.753694 4.025654 7.868374 4.513165 -0.000001 -0.000005 -0.000003 0.916355 -5.977785 -6.076760 -3.375717 -1.482348 -47.627056 0.000001 -0.000000 0.000000 -1.055829 -4.090541 -23.274561 -2.635753 -2.340928 -36.470205 0.000001 -0.000000 -0.000001 0.049380 7.444344 -34.288086 0.080922 -3.294058 -36.772318 -0.000001 0.000001 -0.000002 3.849292 22.874565 -34.017098 0.551541 -6.847359 -48.239307 -0.000001 -0.000003 0.000001 -0.000001 0.000001 -0.000000 -0.000001 0.000001 -0.000000 -0.000001 0.000001 0.000000 0.000001 -0.000003 -0.000001 0.000002 -0.000003 -0.000001 0.000001 -0.000003 -0.000001 0.000001 -0.000003 -0.000001 -0.119792 18.589927 14.920436 7.773978 5.660661 50.688579 210.152995 79.273955 -186.088367 32.442439 0.575696 -2.056492 -54.233847 -14.037472 -5.031668 1.445597 -1.412202 -3.719256 -0.000000 0.000002 -0.000002 -0.306061 5.901024 6.194418 -2.975735 0.580071 47.641392 -0.000002 -0.000000 0.000000 -2.089335 3.604596 23.357225 -2.417172 1.668348 36.525977 -0.000002 0.000001 -0.000000 1.247000 -6.679050 34.485878 -0.175407 4.090841 36.644528 -0.000001 0.000001 0.000001 6.692152 -21.069931 35.139978 -0.483890 9.204073 47.937147 -0.000004 0.000003 -0.000001 0.000002 0.000000 -0.000000 0.000001 -0.000002 -0.000000 0.000002 0.000000 -0.000001 -0.000000 -0.000001 -0.000000 -0.000000 0.000000 -0.000000 -0.000000 -0.000001 -0.000000 -0.000000 -0.000000 0.000000 0.000002 -0.000000 0.000000 0.000002 -0.000000 0.000000 0.000002 -0.000000 0.000000 0.000002 -0.000000 0.000000 0.000002 -0.000000 0.000000 0.000002 -0.000000 0.000000 0.000002 -0.000000 0.000000 -0.000000 -0.000001 -0.000000 -0.000002 0.000001 0.000000 
12.363235 75.597855 -9.200626 32.270841 -37.709587 19.277138 -0.000002 -0.000000 -0.000000 -89.237658 -6.278900 7.911054 67.102019 -13.638780 3.629992 -4.862890 2.238708 -8.713556 0.000000 0.000001 0.000000 -0.000000 0.000002 -0.000000 -88.547706 11.785985 -5.447919 78.715936 -7.843926 -3.828167 16.600590 0.461401 14.797788 -0.000001 -0.000000 0.000001 -0.000000 -0.000003 0.000000 6.628028 -0.130546 -2.283540 13.266720 0.776554 -3.809136 13.266707 0.776562 -3.809144 1.142018 1.258704 -1.171399 1.141996 1.258721 -1.171430 0.000001 0.000000 -0.000001 1.142006 1.258722 -1.171417 1.142004 1.258719 -1.171410 0.000001 -0.000000 -0.000001 0.000001 0.000000 -0.000001 -0.112038 -13.093459 -17.962096 2.919283 -18.238323 -45.999408 127.107348 -73.745559 95.031653 29.631058 5.857290 -6.657798 3.670185 4.528910 8.751579 4.025388 7.867634 4.511923 0.000001 -0.000001 -0.000001 0.916202 -5.978205 -6.076045 -3.372231 -1.480622 -47.627210 -0.000000 0.000003 0.000001 -1.055505 -4.088018 -23.274063 -2.633684 -2.339016 -36.470369 -0.000000 -0.000001 -0.000000 0.049450 7.445142 -34.287908 0.079856 -3.294996 -36.771795 -0.000004 -0.000001 0.000000 3.849375 22.873313 -34.017477 0.548609 -6.849083 -48.239382 0.000001 -0.000002 0.000003 -0.000001 0.000002 -0.000000 -0.000001 0.000002 -0.000000 -0.000001 0.000002 -0.000000 0.000001 -0.000002 -0.000000 0.000001 -0.000003 0.000000 0.000001 -0.000002 -0.000000 0.000001 -0.000002 -0.000001 -0.133403 18.475564 15.067174 6.875420 6.591635 51.175612 219.247884 82.243817 -195.821838 29.566584 1.080037 -0.044809 -50.881716 -12.624103 -5.783453 1.588848 -1.766353 -3.769079 0.000002 -0.000004 -0.000001 -0.306117 5.900267 6.193936 -2.972251 0.578001 47.641601 -0.000004 -0.000000 -0.000001 -2.089818 3.603760 23.356160 -2.414875 1.666075 36.525499 0.000001 0.000000 0.000000 1.246537 -6.677534 34.484010 -0.176738 4.092331 36.644856 0.000001 -0.000001 0.000000 6.690366 -21.068328 35.138236 -0.486453 9.205482 47.936952 0.000002 0.000002 -0.000001 0.000001 0.000004 0.000002 -0.000000 0.000001 0.000002 0.000001 0.000004 0.000002 -0.000000 0.000000 0.000000 -0.000000 0.000001 0.000000 -0.000000 0.000000 0.000000 -0.000000 0.000001 -0.000000 -0.000001 0.000002 -0.000003 -0.000001 0.000002 -0.000003 -0.000001 0.000002 -0.000003 -0.000001 0.000002 -0.000003 -0.000001 0.000002 -0.000003 -0.000001 0.000002 -0.000003 -0.000001 0.000002 -0.000003 0.000001 0.000000 0.000001 -0.000002 -0.000000 -0.000000 
